Coordinates
version=1
nRows=21
nColumns=33
inDegrees=yes

Units are S.I. units (second, meters, Newtons, ...)
Angles are in degrees.

endheader
time	ground_thorax_rot_x	ground_thorax_rot_y	ground_thorax_rot_z	ground_thorax_tx	ground_thorax_ty	ground_thorax_tz	clav_prot_r	clav_elev_r	scapula_abduction_r	scapula_elevation_r	scapula_upward_rot_r	scapula_winging_r	shoulder_elv_r	plane_of_elev_r	axial_rot_r	elbow_flexion_r	pro_sup_r	wrist_flex_r	wrist_dev_r	clav_prot_l	clav_elev_l	scapula_abduction_l	scapula_elevation_l	scapula_upward_rot_l	scapula_winging_l	shoulder_elv_l	plane_of_elev_l	axial_rot_l	elbow_flexion_l	pro_sup_l	wrist_flex_l	wrist_dev_l
      4.62000000	     -4.68844451	      4.43327204	     12.72356819	     -0.11531841	      1.02541838	      0.00674577	     15.90408238	    -15.10963262	     34.27176964	    -12.22463408	     13.23442602	     -8.12605602	     -8.44681916	    -56.71203097	    113.66436311	    -40.37472564	   -169.83393354	     17.71148121	     -8.70129961	     20.36471873	     -9.99667737	    -29.80868598	     -7.60024691	    -26.03364571	      8.13260164	     59.81511414	     -2.86350254	     17.71922146	     20.36087093	      3.48655631	     13.29357055	    -11.43350170
      4.63000000	     -4.66559730	      4.40896177	     12.87296453	     -0.11587506	      1.02512088	      0.00658548	     15.78507938	    -15.09714976	     33.76888534	    -12.04620918	     12.70751276	     -7.94948876	     -8.85187717	    -57.05633911	    113.78883825	    -40.48993670	   -169.59684284	     17.83313819	     -8.62952369	     20.26573157	     -9.90990625	    -29.64489889	     -7.79021899	    -26.26497582	      8.03957541	     59.73625198	     -3.23088286	     17.95422568	     20.43655989	      2.98545681	     13.32241204	    -11.55409721
      4.64000000	     -4.66160783	      4.38453514	     13.00842462	     -0.11641769	      1.02485000	      0.00644039	     15.65716911	    -15.14200720	     33.22330137	    -11.90194312	     12.13512239	     -7.72102548	     -9.23397089	    -57.41855551	    113.92133733	    -40.60319398	   -169.25794123	     17.95789439	     -8.51030080	     20.16370197	     -9.82726367	    -29.47648621	     -7.98434314	    -26.51221471	      7.94105024	     59.69938726	     -3.62103896	     18.12748731	     20.49231978	      2.44031989	     13.37404732	    -11.73836564
      4.65000000	     -4.67043930	      4.36377814	     13.14104289	     -0.11698331	      1.02460891	      0.00627384	     15.52014497	    -15.22120490	     32.64874083	    -11.77729565	     11.53737789	     -7.45734005	     -9.59354904	    -57.79764764	    114.06686740	    -40.66552584	   -168.84154944	     18.05006353	     -8.33241619	     20.06289325	     -9.75336875	    -29.31003880	     -8.17879712	    -26.77568905	      7.84070729	     59.69565430	     -4.02354379	     18.21209110	     20.50897655	      1.94282620	     13.41393537	    -11.96263893
      4.66000000	     -4.68259082	      4.34927378	     13.26680290	     -0.11754198	      1.02437765	      0.00613714	     15.36219054	    -15.31536253	     32.03026193	    -11.65825754	     10.92008769	     -7.16585222	     -9.93452171	    -58.16804615	    114.21343995	    -40.70518494	   -168.35510437	     18.10865750	     -8.09033470	     19.95762824	     -9.68584399	    -29.13742757	     -8.37787464	    -27.06068059	      7.73314446	     59.72056942	     -4.43623515	     18.22349946	     20.52206965	      1.54080674	     13.41318037	    -12.22033888
      4.67000000	     -4.99432963	      4.68090800	     13.03310639	     -0.11737664	      1.02488570	      0.00592629	     14.55930090	    -16.24756955	     29.96421060	    -12.08778334	      9.64971912	     -5.72892838	     -9.46647285	    -58.57709782	    114.34317924	    -41.22128818	   -165.88594993	     18.07289904	     -6.85299578	     19.81604510	     -9.68182593	    -28.90103023	     -8.59597508	    -27.50033206	      7.56642615	     60.42920492	     -4.67689261	     17.29955515	     20.50174250	      0.35984273	     13.19203335	    -13.36641030
      4.68000000	     -4.97861516	      4.61340356	     13.21246688	     -0.11825618	      1.02468828	      0.00576751	     14.49061175	    -16.19163029	     29.62126524	    -11.89552087	      9.23518543	     -5.64224396	     -9.86168553	    -58.86884532	    114.50360537	    -40.79318510	   -165.73946565	     17.94479914	     -6.78760838	     19.76107009	     -9.59402919	    -28.81565065	     -8.76576850	    -27.68867422	      7.51724568	     60.29548864	     -5.08084453	     17.46193338	     20.23945043	      0.37211112	     13.12942640	    -13.32365937
      4.69000000	     -4.95406147	      4.55154810	     13.38884106	     -0.11888375	      1.02430908	      0.00568207	     14.37198340	    -16.10002203	     29.15235295	    -11.64090724	      8.73293389	     -5.52590069	    -10.33841720	    -59.19628233	    114.69352678	    -40.67436230	   -165.47693855	     17.90337209	     -6.63214938	     19.68050396	     -9.47906753	    -28.69268267	     -9.00855440	    -27.97918263	      7.44271125	     60.17943525	     -5.53006483	     17.53248410	     20.26010232	      0.49257736	     13.01821129	    -13.38126957
      4.70000000	     -5.21149137	      4.93412856	     13.38051216	     -0.11883134	      1.02463355	      0.00554895	     13.48938990	    -16.68012701	     27.10467554	    -11.81892205	      7.65793818	     -4.31159808	    -10.15149965	    -59.55601982	    114.71600558	    -40.83322664	   -162.98123418	     17.50763242	     -5.23176071	     19.64855508	     -9.41113012	    -28.65132293	     -9.25062745	    -28.36010593	      7.39693306	     60.59309063	     -5.82593524	     16.82847267	     20.38006606	      2.64776827	     12.02196856	    -13.93553009
      4.71000000	     -5.18924124	      4.81687999	     13.48300905	     -0.11947735	      1.02428353	      0.00546994	     13.42114586	    -16.58437875	     26.76063113	    -11.57845303	      7.22576284	     -4.24998926	    -10.63643815	    -59.86906383	    114.91488064	    -40.68831572	   -162.82056009	     17.48690981	     -5.16180495	     19.58808470	     -9.26738171	    -28.56641921	     -9.49924910	    -28.61057183	      7.34876349	     60.42644350	     -6.29220723	     17.02545947	     20.34944592	      2.76715024	     12.02462302	    -13.97578383
      4.72000000	     -5.12268303	      4.74564475	     13.66816309	     -0.12003254	      1.02387776	      0.00537104	     13.32003419	    -16.47286171	     26.31812760	    -11.29177700	      6.70642280	     -4.15760315	    -11.13499678	    -60.25956637	    115.05900163	    -40.58134099	   -162.57846259	     17.48897742	     -5.01108998	     19.50729802	     -9.14165414	    -28.44968245	     -9.78079197	    -28.96188045	      7.26975509	     60.22597988	     -6.76389892	     17.01079022	     20.44729061	      3.06959431	     12.00227690	    -14.07307564
      4.73000000	     -5.01509124	      4.72378743	     13.24897645	     -0.12065088	      1.02377944	      0.00529432	     13.34805105	    -16.41851460	     26.22280050	    -11.14540228	      6.44488295	     -4.16705356	    -11.29779005	    -60.40817869	    115.08188358	    -40.42415837	   -162.55764562	     17.46583891	     -4.99510746	     19.49800972	     -9.06588988	    -28.44378322	     -9.90405854	    -29.07917734	      7.26859351	     60.19424182	     -6.96095989	     17.01643197	     20.36778886	      3.09459816	     11.99869495	    -14.06565981
      4.74000000	     -5.33117415	      5.05085543	     13.71761367	     -0.12043130	      1.02398981	      0.00535373	     12.43308124	    -16.94315002	     24.06319336	    -11.21018351	      5.22377065	     -2.96283014	    -11.75558894	    -60.93906822	    114.58598862	    -40.62059969	   -160.13345349	     17.35404637	     -3.23612675	     19.28118164	     -9.00880354	    -28.10368119	    -10.20970709	    -29.59425278	      7.03876456	     60.66232144	     -7.73293598	     15.90288603	     20.68506143	      7.38803670	     11.57307219	    -14.96365714
      4.75000000	     -5.22456265	      5.02236313	     13.28325311	     -0.12096936	      1.02397172	      0.00530029	     12.45604778	    -16.88543224	     23.96850917	    -11.06136338	      4.97133131	     -2.97366210	    -11.92094886	    -61.08079065	    114.61368108	    -40.46386376	   -160.11615822	     17.33037417	     -3.22520763	     19.27003489	     -8.93221032	    -28.09550005	    -10.34333856	    -29.73163285	      7.03124300	     60.60052619	     -7.94516077	     15.92794345	     20.59726417	      7.40421826	     11.57625137	    -14.95485717
      4.76000000	     -5.46358012	      5.09838397	     13.84674663	     -0.12094036	      1.02369909	      0.00521102	     11.83870588	    -17.29866093	     22.36442663	    -11.04703019	      3.85632858	     -2.08558954	    -12.64933427	    -61.84559954	    114.35593672	    -40.85613331	   -158.43340196	     17.10601894	     -2.43874798	     19.22505974	     -8.49606462	    -28.06152780	    -10.85055328	    -29.98098075	      7.04395124	     60.23148967	     -8.70871903	     15.86391500	     20.97231392	     10.95026488	     12.14851207	    -16.14923360
      4.77000000	     -5.36112475	      5.07101220	     13.39574861	     -0.12145507	      1.02376021	      0.00517805	     11.85718407	    -17.23537277	     22.26797881	    -10.89220862	      3.60768945	     -2.09836188	    -12.80529143	    -61.96900935	    114.37489819	    -40.69516357	   -158.42117906	     17.08197376	     -2.42848072	     19.21173340	     -8.42872867	    -28.05107455	    -10.98367919	    -30.13377319	      7.03147983	     60.15707351	     -8.92599709	     15.88430900	     20.88218444	     10.96445762	     12.15154635	    -16.13940491
      4.78000000	     -5.31456595	      4.94297295	     13.89769428	     -0.12141589	      1.02317511	      0.00531341	     11.58261645	    -16.93339734	     21.47884143	    -10.35449191	      2.91081599	     -1.97610236	    -13.52000766	    -62.31651280	    114.35595056	    -40.78332205	   -158.25793079	     17.19097930	     -2.29335818	     19.02278723	     -8.23253161	    -27.78405507	    -11.46862742	    -30.76765368	      6.83564808	     59.81649263	     -9.71860917	     15.86707298	     21.51522060	     11.43954388	     12.20067683	    -16.50975353
      4.79000000	     -5.30121007	      4.90343056	     14.02566923	     -0.12168026	      1.02307936	      0.00544310	     11.41156189	    -16.84634892	     20.88790525	    -10.03723631	      2.28540004	     -1.80323176	    -14.00897836	    -62.55811563	    114.20731845	    -40.77305038	   -158.10768591	     17.27424290	     -2.16264582	     18.91756797	     -8.12825652	    -27.64130444	    -11.76507900	    -31.18527045	      6.71997381	     59.69202087	    -10.32502786	     15.62552078	     21.70774067	     12.06763725	     12.29006097	    -16.83163840
      4.80000000	     -5.19420195	      4.88816480	     13.56730375	     -0.12219615	      1.02328732	      0.00545593	     11.42739845	    -16.78874809	     20.79432497	     -9.88694445	      2.04192260	     -1.80970862	    -14.14885301	    -62.68223165	    114.21248093	    -40.61127854	   -158.09633181	     17.25089247	     -2.15340471	     18.90071019	     -8.06860840	    -27.62826785	    -11.90047643	    -31.35632489	      6.70082029	     59.59131603	    -10.53606112	     15.62475191	     21.62256061	     12.09086073	     12.29797744	    -16.82702743
      4.81000000	     -5.33529017	      5.00835788	     14.04472182	     -0.12190926	      1.02358556	      0.00555965	     10.86530345	    -17.24894085	     19.29115035	     -9.88547247	      0.89446409	     -0.94768515	    -15.00471205	    -63.29729442	    113.17886249	    -40.76189024	   -157.82936774	     17.63597856	     -1.91824188	     18.61586469	     -7.93182947	    -27.19408282	    -12.27499810	    -31.85510535	      6.41912382	     59.65539819	    -11.50045065	     14.77818253	     22.22834932	     14.44331394	     12.77276713	    -18.13717192
      4.82000000	     -5.18310743	      4.95006831	     13.97105112	     -0.12188219	      1.02360951	      0.00559567	     10.68008419	    -17.00511797	     18.82055445	     -9.51846320	      0.52808086	     -0.90431668	    -15.32345379	    -63.49549245	    113.06138841	    -40.70925617	   -157.82913209	     17.66681915	     -1.91930953	     18.44310044	     -7.76773580	    -26.94292696	    -12.60042108	    -32.21146021	      6.25702090	     59.28776617	    -11.88902920	     15.08069600	     22.62527252	     14.51739332	     12.78699644	    -18.30470126
